<svg version="1.1" xmlns="http://www.w3.org/2000/svg" viewBox="0 0 407.58300109465534 244.15587177244458" width="407.58300109465534" height="244.15587177244458" filter="invert(93%) hue-rotate(180deg)">
  <!-- svg-source:excalidraw -->
  
  <defs>
    <style class="style-fonts">
      @font-face {
        font-family: "Virgil";
        src: url("https://excalidraw.com/Virgil.woff2");
      }
      @font-face {
        font-family: "Cascadia";
        src: url("https://excalidraw.com/Cascadia.woff2");
      }
    </style>
  </defs>
  <rect x="0" y="0" width="407.58300109465534" height="244.15587177244458" fill="#ffffff"></rect><g transform="translate(49.11974558006119 16.509388606209313) rotate(0 28.649999618530273 22.5)"><text x="0" y="0" font-family="Virgil, Segoe UI Emoji" font-size="36px" fill="#1e1e1e" text-anchor="start" style="white-space: pre;" direction="ltr" dominant-baseline="text-before-edge">192</text></g><g transform="translate(135.47651261601447 16.981222787581373) rotate(0 30.158332824707003 22.5)"><text x="0" y="0" font-family="Virgil, Segoe UI Emoji" font-size="36px" fill="#1e1e1e" text-anchor="start" style="white-space: pre;" direction="ltr" dominant-baseline="text-before-edge">168</text></g><g transform="translate(253.81690631045643 14.962445575162803) rotate(0 4.875 22.5)"><text x="0" y="0" font-family="Virgil, Segoe UI Emoji" font-size="36px" fill="#1e1e1e" text-anchor="start" style="white-space: pre;" direction="ltr" dominant-baseline="text-before-edge">1</text></g><g transform="translate(335.4912532124101 13.46244557516286) rotate(0 4.875 22.5)"><text x="0" y="0" font-family="Virgil, Segoe UI Emoji" font-size="36px" fill="#1e1e1e" text-anchor="start" style="white-space: pre;" direction="ltr" dominant-baseline="text-before-edge">1</text></g><g stroke-linecap="round" transform="translate(29.119745580061192 15.509388606209313) rotate(0 45.5 20.5)"><path d="M10.25 0 M10.25 0 C29.82 -1.73, 51.84 -0.58, 80.75 0 M10.25 0 C38.32 -1.03, 66.03 -0.63, 80.75 0 M80.75 0 C88.48 -1.95, 92.41 1.64, 91 10.25 M80.75 0 C87.38 -1.49, 92.64 3.85, 91 10.25 M91 10.25 C91.4 18.77, 89.5 22.96, 91 30.75 M91 10.25 C91.83 14.65, 89.91 19.64, 91 30.75 M91 30.75 C89.71 37.18, 88.81 39.71, 80.75 41 M91 30.75 C89.3 36.75, 85.74 42.51, 80.75 41 M80.75 41 C55.99 39.4, 28.92 39.39, 10.25 41 M80.75 41 C54.24 41.55, 28.67 41.45, 10.25 41 M10.25 41 C2.09 40.32, 1.53 36.84, 0 30.75 M10.25 41 C4.69 40.92, 0.94 38.06, 0 30.75 M0 30.75 C-1.23 22.34, 0.98 14.03, 0 10.25 M0 30.75 C-0.34 24.26, -0.62 18.05, 0 10.25 M0 10.25 C1.69 4.11, 3.06 1.3, 10.25 0 M0 10.25 C-1.07 4.99, 5.71 1.1, 10.25 0" stroke="#1e1e1e" stroke-width="1" fill="none"></path></g><g stroke-linecap="round" transform="translate(123.51406704085167 14.471834181372117) rotate(0 41 22)"><path d="M11 0 M11 0 C29.59 0.86, 46.36 -0.8, 71 0 M11 0 C27.24 0.09, 41.06 1.04, 71 0 M71 0 C79.73 -1.76, 83.04 4.23, 82 11 M71 0 C77.86 -2.24, 82.05 4.95, 82 11 M82 11 C84.12 17.22, 83.71 25.39, 82 33 M82 11 C81.18 17.87, 81.31 22.97, 82 33 M82 33 C83.54 41.68, 76.86 44.91, 71 44 M82 33 C80.96 38.96, 78.1 42.57, 71 44 M71 44 C53.86 44.72, 36.49 44.42, 11 44 M71 44 C52.69 43.12, 36.21 42.94, 11 44 M11 44 C5.07 44.06, -0.71 41.38, 0 33 M11 44 C5.65 45.77, -1.52 42.25, 0 33 M0 33 C-0.35 26.76, 0.68 17.8, 0 11 M0 33 C-0.54 25.74, -0.53 17.1, 0 11 M0 11 C-0.17 4.82, 3.2 0.49, 11 0 M0 11 C-1.96 1.62, 5.37 -0.07, 11 0" stroke="#1e1e1e" stroke-width="1" fill="none"></path></g><g stroke-linecap="round" transform="translate(238.2887404918286 11.962445575162803) rotate(0 20.5 24)"><path d="M10.25 0 M10.25 0 C15.51 -1.41, 24 0.94, 30.75 0 M10.25 0 C15.05 0.52, 21.42 0.76, 30.75 0 M30.75 0 C36.26 1.66, 41.52 3.12, 41 10.25 M30.75 0 C39.25 -0.44, 42.07 4.16, 41 10.25 M41 10.25 C39.82 15.89, 41.7 22.98, 41 37.75 M41 10.25 C40.74 16.54, 40.13 21.45, 41 37.75 M41 37.75 C42.48 44.53, 36.22 46.59, 30.75 48 M41 37.75 C42.13 44.54, 38.5 46.07, 30.75 48 M30.75 48 C24.39 48.47, 16.19 46.91, 10.25 48 M30.75 48 C26.85 47.3, 21.9 48.61, 10.25 48 M10.25 48 C4.6 46.56, 0.78 44.04, 0 37.75 M10.25 48 C1.52 46.3, 1.07 42.41, 0 37.75 M0 37.75 C1.82 25.6, -1.13 15.94, 0 10.25 M0 37.75 C-0.58 29.38, -0.78 23.28, 0 10.25 M0 10.25 C-0.25 4.92, 2.47 -0.74, 10.25 0 M0 10.25 C-1.01 2.15, 5.34 2.21, 10.25 0" stroke="#1e1e1e" stroke-width="1" fill="none"></path></g><g stroke-linecap="round" transform="translate(321.32869878757293 10) rotate(0 20.5 23.5)"><path d="M10.25 0 M10.25 0 C19.16 1.89, 24.86 0.17, 30.75 0 M10.25 0 C16.19 0.47, 21.96 -0.57, 30.75 0 M30.75 0 C36.99 1.11, 42.18 1.97, 41 10.25 M30.75 0 C38.49 -0.62, 39.11 1.72, 41 10.25 M41 10.25 C40.51 17.79, 42.54 27.3, 41 36.75 M41 10.25 C40.46 17.44, 40.25 22.18, 41 36.75 M41 36.75 C39.16 44.54, 37.33 48.5, 30.75 47 M41 36.75 C39.92 42.73, 36.57 45.74, 30.75 47 M30.75 47 C23.1 48.4, 14.64 45.43, 10.25 47 M30.75 47 C22.53 46.32, 16.09 47.3, 10.25 47 M10.25 47 C2.48 46.18, -1.07 41.61, 0 36.75 M10.25 47 C3.19 47.86, -0.54 44.77, 0 36.75 M0 36.75 C0.66 28.88, -0.21 19.83, 0 10.25 M0 36.75 C0.05 28.01, 0.07 16.99, 0 10.25 M0 10.25 C0.77 1.47, 4.52 -1.21, 10.25 0 M0 10.25 C-1.82 1.86, 2.62 1.62, 10.25 0" stroke="#1e1e1e" stroke-width="1" fill="none"></path></g><g stroke-linecap="round"><g transform="translate(70.83581283004719 56.57572830353604) rotate(0 0 15.208953207511797)"><path d="M0 0 C0 5.07, 0 25.35, 0 30.42 M0 0 C0 5.07, 0 25.35, 0 30.42" stroke="#1e1e1e" stroke-width="1" fill="none"></path></g><g transform="translate(70.83581283004719 56.57572830353604) rotate(0 0 15.208953207511797)"><path d="M-5.2 16.13 C-3.85 19.83, -2.5 23.54, 0 30.42 M-5.2 16.13 C-3.72 20.2, -2.23 24.28, 0 30.42" stroke="#1e1e1e" stroke-width="1" fill="none"></path></g><g transform="translate(70.83581283004719 56.57572830353604) rotate(0 0 15.208953207511797)"><path d="M5.2 16.13 C3.85 19.83, 2.5 23.54, 0 30.42 M5.2 16.13 C3.72 20.2, 2.23 24.28, 0 30.42" stroke="#1e1e1e" stroke-width="1" fill="none"></path></g></g><mask></mask><g stroke-linecap="round"><g transform="translate(162.92737400946208 59.47183418137212) rotate(0 0.04860032049396068 15.232734449965875)"><path d="M0 0 C0.02 5.08, 0.08 25.39, 0.1 30.47 M0 0 C0.02 5.08, 0.08 25.39, 0.1 30.47" stroke="#1e1e1e" stroke-width="1" fill="none"></path></g><g transform="translate(162.92737400946208 59.47183418137212) rotate(0 0.04860032049396068 15.232734449965875)"><path d="M-5.16 16.17 C-4.06 19.16, -2.96 22.15, 0.1 30.47 M-5.16 16.17 C-3.44 20.85, -1.71 25.54, 0.1 30.47" stroke="#1e1e1e" stroke-width="1" fill="none"></path></g><g transform="translate(162.92737400946208 59.47183418137212) rotate(0 0.04860032049396068 15.232734449965875)"><path d="M5.26 16.13 C4.18 19.13, 3.1 22.13, 0.1 30.47 M5.26 16.13 C3.57 20.83, 1.88 25.53, 0.1 30.47" stroke="#1e1e1e" stroke-width="1" fill="none"></path></g></g><mask></mask><g stroke-linecap="round"><g transform="translate(258.6363743507374 60.99123084765233) rotate(0 -0.25481966412706925 14.227730419930396)"><path d="M0 0 C-0.08 4.74, -0.42 23.71, -0.51 28.46 M0 0 C-0.08 4.74, -0.42 23.71, -0.51 28.46" stroke="#1e1e1e" stroke-width="1" fill="none"></path></g><g transform="translate(258.6363743507374 60.99123084765233) rotate(0 -0.25481966412706925 14.227730419930396)"><path d="M-5.14 15 C-3.81 18.86, -2.48 22.72, -0.51 28.46 M-5.14 15 C-3.5 19.77, -1.86 24.53, -0.51 28.46" stroke="#1e1e1e" stroke-width="1" fill="none"></path></g><g transform="translate(258.6363743507374 60.99123084765233) rotate(0 -0.25481966412706925 14.227730419930396)"><path d="M4.6 15.17 C3.13 18.99, 1.66 22.8, -0.51 28.46 M4.6 15.17 C2.79 19.88, 0.98 24.58, -0.51 28.46" stroke="#1e1e1e" stroke-width="1" fill="none"></path></g></g><mask></mask><g stroke-linecap="round"><g transform="translate(340.71593310707016 58.00000000000006) rotate(0 0.24780364049695436 14.742123056175217)"><path d="M0 0 C0.08 4.91, 0.41 24.57, 0.5 29.48 M0 0 C0.08 4.91, 0.41 24.57, 0.5 29.48" stroke="#1e1e1e" stroke-width="1" fill="none"></path></g><g transform="translate(340.71593310707016 58.00000000000006) rotate(0 0.24780364049695436 14.742123056175217)"><path d="M-4.78 15.72 C-3.59 18.82, -2.4 21.93, 0.5 29.48 M-4.78 15.72 C-3.53 18.98, -2.28 22.25, 0.5 29.48" stroke="#1e1e1e" stroke-width="1" fill="none"></path></g><g transform="translate(340.71593310707016 58.00000000000006) rotate(0 0.24780364049695436 14.742123056175217)"><path d="M5.3 15.55 C4.22 18.69, 3.13 21.84, 0.5 29.48 M5.3 15.55 C4.16 18.85, 3.02 22.16, 0.5 29.48" stroke="#1e1e1e" stroke-width="1" fill="none"></path></g></g><mask></mask><g transform="translate(34.53056968953513 93.37158283783879) rotate(0 35.03333282470703 12.5)"><text x="0" y="0" font-family="Virgil, Segoe UI Emoji" font-size="20px" fill="#1e1e1e" text-anchor="start" style="white-space: pre;" direction="ltr" dominant-baseline="text-before-edge">1 octet</text></g><g transform="translate(124.6031422814574 93.1368676826063) rotate(0 35.03333282470706 12.5)"><text x="0" y="0" font-family="Virgil, Segoe UI Emoji" font-size="20px" fill="#1e1e1e" text-anchor="start" style="white-space: pre;" direction="ltr" dominant-baseline="text-before-edge">1 octet</text></g><g transform="translate(221.7441982520166 94.11809047018767) rotate(0 35.03333282470703 12.5)"><text x="0" y="0" font-family="Virgil, Segoe UI Emoji" font-size="20px" fill="#1e1e1e" text-anchor="start" style="white-space: pre;" direction="ltr" dominant-baseline="text-before-edge">1 octet</text></g><g transform="translate(315.4509744660409 90.6838107136528) rotate(0 35.03333282470703 12.5)"><text x="0" y="0" font-family="Virgil, Segoe UI Emoji" font-size="20px" fill="#1e1e1e" text-anchor="start" style="white-space: pre;" direction="ltr" dominant-baseline="text-before-edge">1 octet</text></g><g stroke-linecap="round"><g transform="translate(69.85459004246576 123.29887785907158) rotate(0 0 12.510590541662964)"><path d="M0 0 C0 4.17, 0 20.85, 0 25.02 M0 0 C0 4.17, 0 20.85, 0 25.02" stroke="#1e1e1e" stroke-width="1" fill="none"></path></g><g transform="translate(69.85459004246576 123.29887785907158) rotate(0 0 12.510590541662964)"><path d="M-4.28 13.27 C-2.64 17.77, -1 22.27, 0 25.02 M-4.28 13.27 C-3.28 16.01, -2.28 18.75, 0 25.02" stroke="#1e1e1e" stroke-width="1" fill="none"></path></g><g transform="translate(69.85459004246576 123.29887785907158) rotate(0 0 12.510590541662964)"><path d="M4.28 13.27 C2.64 17.77, 1 22.27, 0 25.02 M4.28 13.27 C3.28 16.01, 2.28 18.75, 0 25.02" stroke="#1e1e1e" stroke-width="1" fill="none"></path></g></g><mask></mask><g stroke-linecap="round"><g transform="translate(162.08953207511792 122.31765507149021) rotate(0 -0.49061139379068663 12.510590541662935)"><path d="M0 0 C-0.16 4.17, -0.82 20.85, -0.98 25.02 M0 0 C-0.16 4.17, -0.82 20.85, -0.98 25.02" stroke="#1e1e1e" stroke-width="1" fill="none"></path></g><g transform="translate(162.08953207511792 122.31765507149021) rotate(0 -0.49061139379068663 12.510590541662935)"><path d="M-4.8 13.1 C-3.5 17.15, -2.2 21.21, -0.98 25.02 M-4.8 13.1 C-3.69 16.57, -2.58 20.04, -0.98 25.02" stroke="#1e1e1e" stroke-width="1" fill="none"></path></g><g transform="translate(162.08953207511792 122.31765507149021) rotate(0 -0.49061139379068663 12.510590541662935)"><path d="M3.76 13.43 C2.15 17.37, 0.54 21.31, -0.98 25.02 M3.76 13.43 C2.38 16.81, 1 20.18, -0.98 25.02" stroke="#1e1e1e" stroke-width="1" fill="none"></path></g></g><mask></mask><g stroke-linecap="round"><g transform="translate(258.498197996157 123.78948925286232) rotate(0 -0.4816456557947504 12.75589623855825)"><path d="M0 0 C-0.16 4.25, -0.8 21.26, -0.96 25.51 M0 0 C-0.16 4.25, -0.8 21.26, -0.96 25.51" stroke="#1e1e1e" stroke-width="1" fill="none"></path></g><g transform="translate(258.498197996157 123.78948925286232) rotate(0 -0.4816456557947504 12.75589623855825)"><path d="M-4.87 13.36 C-3.56 17.44, -2.25 21.51, -0.96 25.51 M-4.87 13.36 C-3.87 16.47, -2.87 19.58, -0.96 25.51" stroke="#1e1e1e" stroke-width="1" fill="none"></path></g><g transform="translate(258.498197996157 123.78948925286232) rotate(0 -0.4816456557947504 12.75589623855825)"><path d="M3.85 13.69 C2.24 17.65, 0.62 21.62, -0.96 25.51 M3.85 13.69 C2.62 16.72, 1.39 19.74, -0.96 25.51" stroke="#1e1e1e" stroke-width="1" fill="none"></path></g></g><mask></mask><g stroke-linecap="round"><g transform="translate(339.95462589798177 121.82704367769958) rotate(0 -0.12540958347511832 14.718341813721054)"><path d="M0 0 C-0.04 4.91, -0.21 24.53, -0.25 29.44 M0 0 C-0.04 4.91, -0.21 24.53, -0.25 29.44" stroke="#1e1e1e" stroke-width="1" fill="none"></path></g><g transform="translate(339.95462589798177 121.82704367769958) rotate(0 -0.12540958347511832 14.718341813721054)"><path d="M-5.17 15.56 C-3.94 19.03, -2.71 22.49, -0.25 29.44 M-5.17 15.56 C-3.75 19.55, -2.34 23.54, -0.25 29.44" stroke="#1e1e1e" stroke-width="1" fill="none"></path></g><g transform="translate(339.95462589798177 121.82704367769958) rotate(0 -0.12540958347511832 14.718341813721054)"><path d="M4.9 15.65 C3.61 19.09, 2.33 22.53, -0.25 29.44 M4.9 15.65 C3.42 19.61, 1.94 23.57, -0.25 29.44" stroke="#1e1e1e" stroke-width="1" fill="none"></path></g></g><mask></mask><g transform="translate(34.03995829574444 159.11350960579296) rotate(0 35.900001525878906 14.477740106702072)"><text x="0" y="0" font-family="Virgil, Segoe UI Emoji" font-size="23.164384170723338px" fill="#1e1e1e" text-anchor="start" style="white-space: pre;" direction="ltr" dominant-baseline="text-before-edge">8 bits</text></g><g transform="translate(124.717696367867 158.86349991902125) rotate(0 35.90000152587888 14.477740106702072)"><text x="0" y="0" font-family="Virgil, Segoe UI Emoji" font-size="23.164384170723338px" fill="#1e1e1e" text-anchor="start" style="white-space: pre;" direction="ltr" dominant-baseline="text-before-edge">8 bits</text></g><g transform="translate(217.4432497943098 158.37288852523034) rotate(0 35.900001525878906 14.477740106702072)"><text x="0" y="0" font-family="Virgil, Segoe UI Emoji" font-size="23.164384170723338px" fill="#1e1e1e" text-anchor="start" style="white-space: pre;" direction="ltr" dominant-baseline="text-before-edge">8 bits</text></g><g transform="translate(303.3002437076828 157.88227713143988) rotate(0 35.900001525878906 14.477740106702072)"><text x="0" y="0" font-family="Virgil, Segoe UI Emoji" font-size="23.164384170723338px" fill="#1e1e1e" text-anchor="start" style="white-space: pre;" direction="ltr" dominant-baseline="text-before-edge">8 bits</text></g><g stroke-linecap="round"><g transform="translate(10 193.45630717114216) rotate(0 193.79150054732767 0)"><path d="M0 0 C64.6 0, 322.99 0, 387.58 0 M0 0 C64.6 0, 322.99 0, 387.58 0" stroke="#1e1e1e" stroke-width="1" fill="none"></path></g></g><mask></mask><g transform="translate(87.02598882514036 209.15587177244458) rotate(0 102.80000305175781 12.5)"><text x="0" y="0" font-family="Virgil, Segoe UI Emoji" font-size="20px" fill="#1e1e1e" text-anchor="start" style="white-space: pre;" direction="ltr" dominant-baseline="text-before-edge">8+8+8+8 = 32 bits</text></g></svg>